<svg width="118" height="98" viewBox="0 0 118 98" fill="none" xmlns="http://www.w3.org/2000/svg">
<path d="M93.42 1.07996H24.22C11.7936 1.07996 1.71997 11.1535 1.71997 23.58V73.58C1.71997 86.0064 11.7936 96.08 24.22 96.08H93.42C105.846 96.08 115.92 86.0064 115.92 73.58V23.58C115.92 11.1535 105.846 1.07996 93.42 1.07996Z" stroke="#D4D9E1" stroke-miterlimit="10"/>
<path d="M88.5 30.15C87.8231 29.7691 87.066 29.5533 86.29 29.52H80.29C79.55 29.45 78.73 29.6899 78.16 28.9699L77.9 28.58L75.4 24.36L74.5 22.85L74.21 22.37C73.7946 21.543 73.2083 20.8135 72.49 20.2299C71.8793 19.6952 71.1175 19.3633 70.31 19.28C69.98 19.28 69.65 19.2 69.31 19.2H56.92C56.15 19.2 55.38 19.2 54.61 19.27H54.35C54.1098 19.2547 53.8689 19.2852 53.64 19.36C52.8818 19.6075 52.1898 20.0242 51.6163 20.5786C51.0429 21.133 50.603 21.8105 50.33 22.5599C49.8774 23.1936 49.4761 23.8624 49.13 24.5599C48.31 25.7799 47.57 27.04 46.87 28.33L46.23 29.2199C45.65 29.5899 44.99 29.4 44.36 29.49H38.36C37.6597 29.507 36.9738 29.6923 36.36 30.03C36.0296 30.1096 35.7151 30.2449 35.43 30.43C35.0425 30.5954 34.6818 30.8179 34.36 31.09C33.7465 31.4804 33.2023 31.9705 32.75 32.54C32.5663 32.6333 32.4264 32.7948 32.36 32.99C31.9618 33.3916 31.6458 33.8671 31.43 34.3899C31.0181 35.0509 30.7143 35.7733 30.53 36.5299C30.34 37.1793 30.249 37.8535 30.26 38.5299C30.1851 39.1945 30.1851 39.8654 30.26 40.5299V42.5299C30.2 43.1953 30.2 43.8646 30.26 44.5299V46.5299C30.1993 47.1952 30.1993 47.8647 30.26 48.5299V50.5299C30.1993 51.1952 30.1993 51.8647 30.26 52.5299V54.5299C30.1993 55.1952 30.1993 55.8647 30.26 56.5299V58.5299C30.1993 59.1952 30.1993 59.8647 30.26 60.5299V62.5299C30.2 63.1953 30.2 63.8646 30.26 64.5299V66.5299C30.19 67.1948 30.19 67.8651 30.26 68.5299C30.3324 69.3015 30.5859 70.045 31 70.6999C31.2844 71.4025 31.7588 72.0119 32.37 72.4599L32.51 72.58C32.8592 72.9586 33.3 73.241 33.79 73.4C34.3913 73.7815 35.0793 74.0051 35.79 74.05C37.98 74.2 40.18 74.11 42.37 74.12C45.69 74.12 49.02 74.12 52.37 74.12H72.37C75.69 74.12 79.02 74.12 82.37 74.12C84.37 74.12 86.37 74.1999 88.37 74.0599C89.0622 74.1174 89.7563 73.9751 90.37 73.65C91.1295 73.4355 91.8192 73.0251 92.37 72.4599C93.0312 71.9333 93.5446 71.2442 93.86 70.4599C94.2138 69.8481 94.4257 69.1646 94.48 68.4599V66.4599C94.5305 65.7942 94.5305 65.1257 94.48 64.4599V62.4599C94.5305 61.7942 94.5305 61.1257 94.48 60.4599V58.4599C94.5305 57.7942 94.5305 57.1257 94.48 56.4599V54.4599C94.53 53.7942 94.53 53.1257 94.48 52.4599V50.4599C94.5305 49.7942 94.5305 49.1257 94.48 48.4599V46.4599C94.5305 45.7942 94.5305 45.1257 94.48 44.4599V42.4599C94.5305 41.7942 94.5305 41.1257 94.48 40.4599C94.5306 39.7942 94.5306 39.1257 94.48 38.4599C94.5162 37.8248 94.4243 37.1889 94.21 36.59C94.0347 35.7112 93.6954 34.8732 93.21 34.1199C93.0693 33.7406 92.8435 33.3985 92.55 33.1199C92.3974 32.7926 92.1589 32.5127 91.86 32.31C91.4539 31.7902 90.9556 31.3495 90.39 31.01C90.0348 30.7124 89.6327 30.4759 89.2 30.3099C88.9945 30.1718 88.7451 30.1148 88.5 30.15Z" stroke="#908F8F" stroke-linecap="round" stroke-linejoin="round"/>
<path d="M87.22 39.0699C87.264 39.082 87.3108 39.0787 87.3526 39.0605C87.3944 39.0423 87.4288 39.0103 87.45 38.9699C87.66 38.9699 87.78 38.8699 87.9 38.7299C88.2992 38.4326 88.5658 37.9906 88.6425 37.4987C88.7192 37.0069 88.5998 36.5046 88.31 36.0999C88.1061 35.769 87.8031 35.5107 87.4441 35.3618C87.0851 35.2128 86.6883 35.1806 86.31 35.2699H84.31C82.57 35.1999 81.7 36.2699 82.15 37.9099C82.1849 38.0714 82.2515 38.2244 82.3459 38.36C82.4403 38.4956 82.5606 38.6111 82.7 38.6999C82.9138 38.8952 83.1735 39.0334 83.4549 39.1015C83.7364 39.1697 84.0305 39.1657 84.31 39.0899H87.24L87.22 39.0699Z" stroke="#908F8F" stroke-linecap="round" stroke-linejoin="round"/>
<path d="M77 58.23C77.2737 57.6921 77.4754 57.1206 77.6 56.53C77.8139 55.8799 77.9613 55.2098 78.04 54.53C78.1751 53.8725 78.2255 53.2004 78.19 52.53C78.2599 51.8618 78.2228 51.1866 78.08 50.53C78.065 49.8487 77.9435 49.1739 77.72 48.53C77.6133 47.8376 77.4079 47.1641 77.11 46.53C76.9842 46.0471 76.7743 45.5901 76.49 45.18C76.4485 44.929 76.3337 44.6959 76.16 44.51C75.9143 44.0173 75.623 43.5486 75.29 43.11C74.5404 42.0619 73.6523 41.12 72.65 40.31C71.9629 39.6819 71.2083 39.1318 70.4 38.67C70.2889 38.5339 70.1329 38.4417 69.96 38.41C69.4655 38.0769 68.927 37.8144 68.36 37.63C67.7247 37.3246 67.0524 37.1027 66.36 36.97C65.7099 36.7663 65.0391 36.6355 64.36 36.58C63.7009 36.4568 63.0295 36.4132 62.36 36.45H61.57H61.33L60.88 36.51H60.36C59.6782 36.5442 59.0047 36.6755 58.36 36.9C57.6651 37.0227 56.9915 37.245 56.36 37.56C55.6483 37.7944 54.9745 38.1313 54.36 38.56C51.8659 39.9623 49.8202 42.0427 48.46 44.56L48.41 44.75C48.0674 45.2585 47.8013 45.8144 47.62 46.4L47.44 46.92C47.2596 47.2526 47.141 47.6151 47.09 47.99L47 48.5C46.7902 49.1467 46.6756 49.8204 46.66 50.5V50.75V51.02C46.5784 51.509 46.5616 52.0066 46.61 52.5C46.5834 53.1702 46.6337 53.8413 46.76 54.5C46.8298 55.1822 46.9809 55.8537 47.21 56.5C47.3714 57.2753 47.6442 58.023 48.02 58.72C48.0517 58.9367 48.1536 59.1369 48.31 59.29C48.4494 59.7992 48.6834 60.2776 49 60.7C49.317 61.3114 49.7249 61.8712 50.21 62.36L50.48 62.66C50.9543 63.3195 51.5397 63.8913 52.21 64.35C52.237 64.4116 52.2768 64.4666 52.3268 64.5115C52.3768 64.5563 52.4359 64.5899 52.5 64.61C53.0171 65.087 53.5996 65.4877 54.23 65.8C55.4866 66.6205 56.883 67.2035 58.35 67.52C58.9913 67.7583 59.6664 67.8933 60.35 67.92C61.0063 68.0643 61.6806 68.1081 62.35 68.05C62.681 68.106 63.019 68.106 63.35 68.05C63.5391 68.1073 63.7409 68.1073 63.93 68.05H64.32C65.0024 68.0135 65.676 67.8788 66.32 67.65C67.7408 67.3473 69.0956 66.7918 70.32 66.01C71.0394 65.6276 71.7108 65.161 72.32 64.62C73.0898 64.0652 73.7651 63.3898 74.32 62.62C74.9178 62.042 75.4116 61.3655 75.78 60.62C76.0958 60.283 76.3257 59.8748 76.45 59.43C76.6413 59.2015 76.7659 58.9247 76.81 58.63C76.8246 58.5914 76.8246 58.5487 76.81 58.51L77 58.23Z" stroke="#908F8F" stroke-linecap="round" stroke-linejoin="round"/>
<path d="M68.07 43.32C67.9651 43.1866 67.8163 43.0945 67.65 43.06C67.3416 42.7929 66.9753 42.6012 66.58 42.5L66.05 42.28H65.8C65.7344 42.1988 65.6501 42.1345 65.5544 42.0928C65.4586 42.051 65.3542 42.0329 65.25 42.04L65 42L64.71 41.92H64.46C63.761 41.7254 63.0334 41.6543 62.31 41.71C61.6396 41.655 60.9647 41.7056 60.31 41.86C58.8036 42.1287 57.3818 42.7488 56.16 43.67C55.7771 43.8767 55.4376 44.1551 55.16 44.49C54.7726 44.7645 54.4344 45.1026 54.16 45.49L53.53 46.33C53.0299 47.0071 52.6416 47.76 52.38 48.56C52.2726 48.7131 52.2102 48.8933 52.2 49.08C51.9932 49.5471 51.8778 50.0495 51.86 50.56C51.6882 51.212 51.6407 51.8905 51.72 52.56C51.7123 54.0231 52.0552 55.4667 52.72 56.77C53.2957 58.0552 54.1415 59.2012 55.2 60.13C55.32 60.33 55.44 60.53 55.7 60.56C55.8992 60.7752 56.1365 60.9515 56.4 61.08C56.4139 61.1258 56.4437 61.1651 56.4841 61.1908C56.5244 61.2165 56.5727 61.2269 56.62 61.22C56.7328 61.3543 56.888 61.446 57.06 61.48C57.4157 61.771 57.8276 61.9855 58.27 62.11C59.5603 62.7011 60.972 62.9787 62.39 62.92C63.7666 62.9992 65.1412 62.7346 66.39 62.15C67.682 61.6559 68.8604 60.9048 69.8538 59.9423C70.8473 58.9798 71.6352 57.8258 72.17 56.55V56.55L72.38 56.05C72.45 55.92 72.56 55.81 72.52 55.65C72.721 55.1858 72.8492 54.6933 72.9 54.19C72.9966 53.6623 73.0435 53.1266 73.04 52.59C73.1387 51.1497 72.8811 49.7072 72.29 48.39C72.1668 47.884 71.9309 47.4122 71.6 47.01C71.5681 46.8428 71.4755 46.6932 71.34 46.59V46.59C71.0673 46.0421 70.6942 45.5503 70.24 45.14C70.1271 44.9103 69.9453 44.7215 69.72 44.6C69.3691 44.208 68.9612 43.8708 68.51 43.6C68.4994 43.5939 68.4873 43.5907 68.475 43.5907C68.4627 43.5907 68.4507 43.5939 68.44 43.6L68.07 43.32Z" stroke="#908F8F" stroke-linecap="round" stroke-linejoin="round"/>
<path d="M55.68 46.81L56.47 45.98L58.22 44.74L58.49 44.58L60.34 43.86C60.9933 43.6896 61.6649 43.599 62.34 43.59C62.5205 43.6843 62.6768 43.8192 62.7965 43.984C62.9162 44.1488 62.9961 44.3391 63.03 44.54C63.0026 44.7418 62.9251 44.9335 62.8046 45.0977C62.6841 45.2619 62.5243 45.3933 62.34 45.48C61.7103 45.5632 61.0883 45.697 60.48 45.88C60.4629 45.8755 60.4451 45.8746 60.4277 45.8773C60.4102 45.88 60.3935 45.8862 60.3785 45.8956C60.3635 45.9049 60.3506 45.9172 60.3406 45.9317C60.3305 45.9463 60.3235 45.9627 60.32 45.98V45.98C59.905 46.0778 59.5139 46.258 59.17 46.51C58.8442 46.6007 58.5522 46.785 58.33 47.04C57.7674 47.3544 57.306 47.8227 57 48.39C56.1188 49.5834 55.6613 51.0369 55.7 52.52C55.5 53.3 55.24 53.52 54.34 53.42C54.1864 53.3159 54.0556 53.1815 53.9559 53.025C53.8561 52.8685 53.7895 52.6932 53.76 52.51L53.92 50.51C54.2782 49.1804 54.8745 47.9268 55.68 46.81V46.81Z" stroke="#908F8F" stroke-linecap="round" stroke-linejoin="round"/>
<path d="M43.92 24.08H37.92V29.08H43.92V24.08Z" stroke="#908F8F" stroke-linecap="round" stroke-linejoin="round"/>
</svg>
