<svg width="1035" height="282" viewBox="0 0 1035 282" fill="none" xmlns="http://www.w3.org/2000/svg">
<g clip-path="url(#clip0_95_143)">
<path d="M161.393 134.147V178.21H45.7458V281.785H0.331222V147.542C-0.00725849 144.259 0.331222 130.598 0.331222 130.598C1.21768 97.3325 14.7587 65.665 38.1816 42.0801C61.6045 18.4952 93.137 4.77729 126.322 3.73541H134.486C135.021 3.73541 135.556 3.76823 136.087 3.79377V51.6322C133.498 51.389 130.878 51.2674 128.226 51.2674C84.3508 51.2674 48.4609 85.5576 45.7567 128.836C45.6475 130.573 45.7567 134.155 45.7567 134.155L161.393 134.147Z" fill="#FEC93D" stroke="#FEC93D" stroke-miterlimit="10"/>
<path d="M1034.82 236.846V281.42H916.779V3.79382H962.194V236.846H1034.82Z" fill="#FEC93D" stroke="#FEC93D" stroke-miterlimit="10"/>
<path d="M450.274 192.306C448.254 175.672 445.258 159.172 441.302 142.891C435.992 121.172 429.113 100.97 420.92 82.7378C404.349 45.8394 382.41 17.0247 357.228 0.109436C333.884 15.7954 313.327 41.6954 297.248 74.789C287.421 95.0312 279.25 117.965 273.154 142.891C269.195 159.172 266.197 175.672 264.175 192.306C261.844 211.422 260.682 230.662 260.695 249.92C260.695 260.58 261.038 271.079 261.722 281.42L310.394 281.785C309.604 271.545 309.193 261.021 309.193 250.285C309.163 231.006 310.536 211.75 313.302 192.671H401.132C403.898 211.75 405.271 231.006 405.241 250.285C405.241 261.021 404.83 271.545 404.04 281.785L452.734 281.42C453.411 271.089 453.753 260.589 453.76 249.92C453.771 230.662 452.607 211.421 450.274 192.306ZM318.623 142.76C328.26 112.483 338.906 88.9939 354.815 75.7885C370.723 88.9939 381.384 112.61 391.021 142.91L318.623 142.76Z" fill="#FEC93D" stroke="#FEC93D" stroke-width="0.5" stroke-miterlimit="10"/>
<path d="M766.108 192.306C764.086 175.672 761.088 159.172 757.13 142.891C751.819 121.172 744.941 100.97 736.748 82.7378C720.177 45.8394 698.238 17.0247 673.055 0.109436C649.711 15.7954 629.155 41.6954 613.075 74.789C603.248 95.0312 595.077 117.965 588.981 142.891C585.022 159.172 582.024 175.672 580.002 192.306C577.671 211.422 576.509 230.662 576.523 249.92C576.523 260.58 576.865 271.079 577.549 281.42L626.221 281.785C625.432 271.545 625.02 261.021 625.02 250.285C624.99 231.006 626.364 211.75 629.129 192.671H716.96C719.725 211.75 721.099 231.006 721.069 250.285C721.069 261.021 720.657 271.545 719.868 281.785L768.561 281.42C769.238 271.089 769.58 260.589 769.588 249.92C769.601 230.662 768.439 211.422 766.108 192.306ZM634.458 142.76C644.095 112.483 654.741 88.9939 670.65 75.7885C686.558 88.9939 697.218 112.61 706.856 142.91L634.458 142.76Z" fill="#FEC93D" stroke="#FEC93D" stroke-width="0.5" stroke-miterlimit="10"/>
<path d="M201.611 281.909C216.328 281.909 228.259 269.95 228.259 255.199C228.259 240.448 216.328 228.489 201.611 228.489C186.893 228.489 174.962 240.448 174.962 255.199C174.962 269.95 186.893 281.909 201.611 281.909Z" fill="#FEC93D" stroke="#FEC93D" stroke-width="0.5" stroke-miterlimit="10"/>
<path d="M518.494 281.909C533.211 281.909 545.142 269.95 545.142 255.199C545.142 240.448 533.211 228.489 518.494 228.489C503.776 228.489 491.845 240.448 491.845 255.199C491.845 269.95 503.776 281.909 518.494 281.909Z" fill="#FEC93D" stroke="#FEC93D" stroke-width="0.5" stroke-miterlimit="10"/>
<path d="M838.281 281.909C852.999 281.909 864.93 269.95 864.93 255.199C864.93 240.448 852.999 228.489 838.281 228.489C823.563 228.489 811.632 240.448 811.632 255.199C811.632 269.95 823.563 281.909 838.281 281.909Z" fill="#FEC93D" stroke="#FEC93D" stroke-width="0.5" stroke-miterlimit="10"/>
</g>
<defs>
<clipPath id="clip0_95_143">
<rect width="1035" height="282" fill="white"/>
</clipPath>
</defs>
</svg>
