<svg width="118" height="98" viewBox="0 0 118 98" fill="none" xmlns="http://www.w3.org/2000/svg">
<path d="M78.52 36.83L84.52 38.69C84.8564 38.7873 85.1701 38.9506 85.4428 39.1704C85.7154 39.3902 85.9417 39.662 86.1082 39.9701C86.2748 40.2781 86.3785 40.6162 86.4131 40.9647C86.4478 41.3132 86.4127 41.6651 86.31 42L77 72.27C76.7882 72.93 76.3262 73.4808 75.713 73.8042C75.0999 74.1276 74.3844 74.1979 73.72 74L37.59 62.92" stroke="#908F8F" stroke-linecap="round" stroke-linejoin="round"/>
<path d="M73.87 22.66H33C31.8954 22.66 31 23.5555 31 24.66V57.62C31 58.7246 31.8954 59.62 33 59.62H73.87C74.9746 59.62 75.87 58.7246 75.87 57.62V24.66C75.87 23.5555 74.9746 22.66 73.87 22.66Z" stroke="#908F8F" stroke-linecap="round" stroke-linejoin="round"/>
<path d="M61.35 37.18C63.5371 37.18 65.31 35.4071 65.31 33.22C65.31 31.033 63.5371 29.26 61.35 29.26C59.163 29.26 57.39 31.033 57.39 33.22C57.39 35.4071 59.163 37.18 61.35 37.18Z" stroke="#908F8F" stroke-linecap="round" stroke-linejoin="round"/>
<path d="M67.95 53.02H37.6L48.16 41.14L54.76 47.74L58.71 43.78L67.95 53.02Z" stroke="#908F8F" stroke-linecap="round" stroke-linejoin="round"/>
<path d="M93.31 1.16003H24.11C11.6836 1.16003 1.60999 11.2336 1.60999 23.66V73.66C1.60999 86.0864 11.6836 96.16 24.11 96.16H93.31C105.736 96.16 115.81 86.0864 115.81 73.66V23.66C115.81 11.2336 105.736 1.16003 93.31 1.16003Z" stroke="#D4D9E1" stroke-miterlimit="10"/>
</svg>
