<svg width="37" height="37" viewBox="0 0 37 37" fill="none" xmlns="http://www.w3.org/2000/svg">
<path d="M33.617 15.4806H32.3752V15.4166H18.5002V21.5833H27.2129C25.9418 25.173 22.5262 27.7499 18.5002 27.7499C13.3919 27.7499 9.25016 23.6082 9.25016 18.4999C9.25016 13.3916 13.3919 9.24992 18.5002 9.24992C20.8581 9.24992 23.0034 10.1395 24.6368 11.5925L28.9974 7.23188C26.244 4.66577 22.5609 3.08325 18.5002 3.08325C9.98631 3.08325 3.0835 9.98606 3.0835 18.4999C3.0835 27.0138 9.98631 33.9166 18.5002 33.9166C27.014 33.9166 33.9168 27.0138 33.9168 18.4999C33.9168 17.4662 33.8105 16.4572 33.617 15.4806Z" fill="#FFC107"/>
<path d="M4.86084 11.3242L9.92598 15.0389C11.2965 11.6457 14.6157 9.24992 18.5 9.24992C20.8579 9.24992 23.0032 10.1395 24.6366 11.5925L28.9972 7.23188C26.2438 4.66577 22.5607 3.08325 18.5 3.08325C12.5784 3.08325 7.44313 6.42636 4.86084 11.3242Z" fill="#FF3D00"/>
<path d="M18.5001 33.9167C22.4822 33.9167 26.1005 32.3928 28.8362 29.9145L24.0647 25.8769C22.5169 27.0494 20.5929 27.75 18.5001 27.75C14.4902 27.75 11.0854 25.1932 9.80276 21.625L4.77539 25.4984C7.32685 30.4911 12.5084 33.9167 18.5001 33.9167Z" fill="#4CAF50"/>
<path d="M33.6168 15.4807H32.375V15.4167H18.5V21.5834H27.2127C26.6022 23.3078 25.493 24.7947 24.0623 25.8777C24.0631 25.877 24.0639 25.877 24.0646 25.8762L28.8361 29.9138C28.4985 30.2206 33.9167 26.2084 33.9167 18.5001C33.9167 17.4664 33.8103 16.4574 33.6168 15.4807Z" fill="#1976D2"/>
</svg>
