<svg width="96" height="100" viewBox="0 0 96 100" fill="none" xmlns="http://www.w3.org/2000/svg">
<path d="M28.8605 10.8129C36.8518 5.58332 46.3171 2.18018 48 2.18018C49.6829 2.18018 59.1482 5.58332 67.1395 10.8129C77.237 17.4208 84.7375 28.3949 88.4566 36.5076C93.5054 47.5208 94 59.8217 94 64.227C90.2809 72.3397 80.2742 84.0028 67.2903 90.94C58.8817 95.4326 49.6829 97.4968 48 97.4968C46.3171 97.4968 36.2967 95.1165 28.7097 90.94C8.41675 79.7691 2 64.227 2 64.227C2 59.8217 2.49462 47.5208 7.54343 36.5076C11.2625 28.3949 18.763 17.4208 28.8605 10.8129Z" stroke="#18E369" stroke-width="4"/>
<path d="M24.0625 53.1983L37.6998 66.9262L71.7929 32.6064" stroke="#18E369" stroke-width="4" stroke-linecap="round" stroke-linejoin="round"/>
</svg>
