<svg width="15" height="15" viewBox="0 0 15 15" fill="none" xmlns="http://www.w3.org/2000/svg">
<path d="M13.125 13.875L9.375 9.625M10.625 6.08333C10.625 6.73447 10.5118 7.37923 10.292 7.98081C10.0721 8.58238 9.74985 9.12898 9.34359 9.5894C8.93734 10.0498 8.45504 10.4151 7.92424 10.6642C7.39344 10.9134 6.82453 11.0417 6.25 11.0417C5.67547 11.0417 5.10656 10.9134 4.57576 10.6642C4.04496 10.4151 3.56266 10.0498 3.15641 9.5894C2.75015 9.12898 2.42789 8.58238 2.20803 7.98081C1.98816 7.37923 1.875 6.73447 1.875 6.08333C1.875 4.7683 2.33594 3.50713 3.15641 2.57726C3.97688 1.64739 5.08968 1.125 6.25 1.125C7.41032 1.125 8.52312 1.64739 9.34359 2.57726C10.1641 3.50713 10.625 4.7683 10.625 6.08333Z" stroke="#434343" stroke-width="2" stroke-linecap="round" stroke-linejoin="round"/>
</svg>
