<svg width="18" height="20" viewBox="0 0 18 20" fill="none" xmlns="http://www.w3.org/2000/svg">
<path d="M6.1907 11.1184C6.3347 10.7817 6.41598 10.4017 6.41598 10.0001C6.41598 9.59839 6.3347 9.21839 6.1907 8.88172M6.1907 11.1184C5.97519 11.622 5.62051 12.0259 5.18414 12.2645C4.74776 12.5031 4.25524 12.5626 3.78637 12.4331C3.3175 12.3037 2.89974 11.993 2.60078 11.5514C2.30182 11.1099 2.13916 10.5632 2.13916 10.0001C2.13916 9.43691 2.30182 8.89026 2.60078 8.44866C2.89974 8.00707 3.3175 7.69639 3.78637 7.56697C4.25524 7.43755 4.74776 7.49696 5.18414 7.73559C5.62051 7.97421 5.97519 8.37806 6.1907 8.88172M6.1907 11.1184L10.9187 13.8817M6.1907 8.88172L10.9187 6.11839M10.9187 13.8817C10.665 14.4749 10.6232 15.1617 10.8026 15.7908C10.9821 16.42 11.368 16.9401 11.8754 17.2367C12.3829 17.5333 12.9704 17.5821 13.5087 17.3724C14.0469 17.1627 14.4919 16.7116 14.7456 16.1184C14.9993 15.5252 15.0411 14.8385 14.8617 14.2093C14.6823 13.5801 14.2964 13.06 13.7889 12.7634C13.5376 12.6165 13.264 12.529 12.9838 12.5057C12.7036 12.4824 12.4222 12.5239 12.1557 12.6277C11.6174 12.8374 11.1725 13.2885 10.9187 13.8817ZM10.9187 6.11839C11.0444 6.41206 11.2182 6.67392 11.4305 6.88904C11.6427 7.10415 11.8891 7.2683 12.1556 7.3721C12.422 7.47591 12.7034 7.51735 12.9836 7.49405C13.2638 7.47075 13.5373 7.38317 13.7885 7.23631C14.0398 7.08944 14.2638 6.88618 14.4478 6.63811C14.6318 6.39005 14.7723 6.10204 14.8611 5.79054C14.9499 5.47904 14.9853 5.15014 14.9654 4.82263C14.9455 4.49511 14.8705 4.17539 14.7449 3.88172C14.4912 3.28863 14.0463 2.83766 13.5081 2.62801C12.9699 2.41836 12.3825 2.4672 11.8751 2.7638C11.3677 3.06041 10.9819 3.58046 10.8025 4.20957C10.6232 4.83867 10.665 5.5253 10.9187 6.11839Z" stroke="#434343" stroke-width="2" stroke-linecap="round" stroke-linejoin="round"/>
</svg>
