<svg width="18" height="18" viewBox="0 0 18 18" fill="none" xmlns="http://www.w3.org/2000/svg">
<path d="M5.1495 5.39286H5.15663M5.1495 2.54192H8.71406C9.07907 2.54192 9.44408 2.68091 9.72212 2.95959L14.7125 7.94872C14.9798 8.21603 15.13 8.57854 15.13 8.95652C15.13 9.3345 14.9798 9.69701 14.7125 9.96432L9.72212 14.9535C9.45474 15.2207 9.09214 15.3708 8.71406 15.3708C8.33598 15.3708 7.97339 15.2207 7.706 14.9535L2.71562 9.96432C2.58302 9.83213 2.47785 9.67504 2.40616 9.50209C2.33447 9.32914 2.29766 9.14373 2.29785 8.95652V5.39286C2.29785 4.63674 2.59829 3.9116 3.13308 3.37694C3.66787 2.84229 4.3932 2.54192 5.1495 2.54192Z" stroke="#A0A0A0" stroke-width="2" stroke-linecap="round" stroke-linejoin="round"/>
</svg>
